name Walk1.mot
datacolumns 19
datarows 25
range 1.61900000 1.64300000
endheader

                time	   L_ground_force_vx	   L_ground_force_vy	   L_ground_force_vz	   L_ground_force_px	   L_ground_force_py	   L_ground_force_pz	   R_ground_force_vx	   R_ground_force_vy	   R_ground_force_vz	   R_ground_force_px	   R_ground_force_py	   R_ground_force_pz	   L_ground_torque_x	   L_ground_torque_y	   L_ground_torque_z	   R_ground_torque_x	   R_ground_torque_y	   R_ground_torque_z	
          1.61900000	         17.21617935	        637.98931133	         34.55150895	         -0.15300200	          0.00000000	         -0.04498205	         -0.04115031	          0.26891386	         -0.01407360	          0.00028581	          0.00000000	          0.00009050	          0.00000000	         -1.71138047	          0.00000000	          0.00000000	         -0.00020829	          0.00000000	
          1.62000000	         17.49770784	        638.82739726	         34.67452228	         -0.15244446	          0.00000000	         -0.04499256	         -0.04461379	          0.28678532	         -0.01485587	          0.00029946	          0.00000000	          0.00009479	          0.00000000	         -1.71404044	          0.00000000	          0.00000000	         -0.00022738	          0.00000000	
          1.62100000	         17.78299289	        639.67824763	         34.80492812	         -0.15188981	          0.00000000	         -0.04500400	         -0.04821486	          0.30513308	         -0.01564948	          0.00031314	          0.00000000	          0.00009909	          0.00000000	         -1.71586665	          0.00000000	          0.00000000	         -0.00024731	          0.00000000	
          1.62200000	         18.07231694	        640.54283988	         34.94271878	         -0.15133829	          0.00000000	         -0.04501634	         -0.05195145	          0.32392565	         -0.01645221	          0.00032679	          0.00000000	          0.00010338	          0.00000000	         -1.71685284	          0.00000000	          0.00000000	         -0.00026807	          0.00000000	
          1.62300000	         18.36597701	        641.42214849	         35.08786794	         -0.15079010	          0.00000000	         -0.04502954	         -0.05582070	          0.34312673	         -0.01726158	          0.00034036	          0.00000000	          0.00010765	          0.00000000	         -1.71699340	          0.00000000	          0.00000000	         -0.00028965	          0.00000000	
          1.62400000	         18.66428381	        642.31713875	         35.24033075	         -0.15024546	          0.00000000	         -0.04504357	         -0.05981896	          0.36269498	         -0.01807488	          0.00035379	          0.00000000	          0.00011186	          0.00000000	         -1.71628316	          0.00000000	          0.00000000	         -0.00031204	          0.00000000	
          1.62500000	         18.96756074	        643.22876081	         35.40004406	         -0.14970461	          0.00000000	         -0.04505840	         -0.06394172	          0.38258373	         -0.01888910	          0.00036701	          0.00000000	          0.00011601	          0.00000000	         -1.71471730	          0.00000000	          0.00000000	         -0.00033523	          0.00000000	
          1.62600000	         19.27614276	        644.15794409	         35.56692662	         -0.14916777	          0.00000000	         -0.04507399	         -0.06818351	          0.40274059	         -0.01970097	          0.00037993	          0.00000000	          0.00012006	          0.00000000	         -1.71229142	          0.00000000	          0.00000000	         -0.00035918	          0.00000000	
          1.62700000	         19.59037522	        645.10559202	         35.74087930	         -0.14863517	          0.00000000	         -0.04509030	         -0.07253788	          0.42310726	         -0.02050693	          0.00039249	          0.00000000	          0.00012399	          0.00000000	         -1.70900176	          0.00000000	          0.00000000	         -0.00038388	          0.00000000	
          1.62800000	         19.91061266	        646.07257747	         35.92178523	         -0.14810704	          0.00000000	         -0.04510728	         -0.07699731	          0.44361910	         -0.02130308	          0.00040460	          0.00000000	          0.00012778	          0.00000000	         -1.70484554	          0.00000000	          0.00000000	         -0.00040928	          0.00000000	
          1.62900000	         20.23721754	        647.05973879	         36.10950983	         -0.14758360	          0.00000000	         -0.04512490	         -0.08155313	          0.46420490	         -0.02208524	          0.00041616	          0.00000000	          0.00013139	          0.00000000	         -1.69982135	          0.00000000	          0.00000000	         -0.00043536	          0.00000000	
          1.63000000	         20.57055866	        648.06787672	         36.30390053	         -0.14706507	          0.00000000	         -0.04514310	         -0.08619550	          0.48478651	         -0.02284887	          0.00042707	          0.00000000	          0.00013479	          0.00000000	         -1.69392957	          0.00000000	          0.00000000	         -0.00046206	          0.00000000	
          1.63100000	         20.91100942	        649.09775202	         36.50478621	         -0.14655168	          0.00000000	         -0.04516183	         -0.09091328	          0.50527854	         -0.02358910	          0.00043724	          0.00000000	          0.00013795	          0.00000000	         -1.68717276	          0.00000000	          0.00000000	         -0.00048933	          0.00000000	
          1.63200000	         21.25894568	        650.15008357	         36.71197630	         -0.14604363	          0.00000000	         -0.04518101	         -0.09569400	          0.52558804	         -0.02430069	          0.00044654	          0.00000000	          0.00014083	          0.00000000	         -1.67955607	          0.00000000	          0.00000000	         -0.00051712	          0.00000000	
          1.63300000	         21.61474388	        651.22554689	         36.92525975	         -0.14554116	          0.00000000	         -0.04520059	         -0.10052375	          0.54561417	         -0.02497805	          0.00045487	          0.00000000	          0.00014341	          0.00000000	         -1.67108749	          0.00000000	          0.00000000	         -0.00054535	          0.00000000	
          1.63400000	         21.97877916	        652.32477275	         37.14440404	         -0.14504446	          0.00000000	         -0.04522048	         -0.10538716	          0.56524790	         -0.02561520	          0.00046209	          0.00000000	          0.00014563	          0.00000000	         -1.66177803	          0.00000000	          0.00000000	         -0.00057396	          0.00000000	
          1.63500000	         22.35142387	        653.44834551	         37.36915439	         -0.14455375	          0.00000000	         -0.04524061	         -0.11026727	          0.58437166	         -0.02620576	          0.00046807	          0.00000000	          0.00014745	          0.00000000	         -1.65164163	          0.00000000	          0.00000000	         -0.00060285	          0.00000000	
          1.63600000	         22.73304621	        654.59680106	         37.59923312	         -0.14406924	          0.00000000	         -0.04526089	         -0.11514546	          0.60285910	         -0.02674297	          0.00047268	          0.00000000	          0.00014883	          0.00000000	         -1.64069516	          0.00000000	          0.00000000	         -0.00063194	          0.00000000	
          1.63700000	         23.12400892	        655.77062400	         37.83433924	         -0.14359114	          0.00000000	         -0.04528125	         -0.12000141	          0.62057474	         -0.02721966	          0.00047576	          0.00000000	          0.00014973	          0.00000000	         -1.62895810	          0.00000000	          0.00000000	         -0.00066112	          0.00000000	
          1.63800000	         23.52466804	        656.97024415	         38.07414804	         -0.14311964	          0.00000000	         -0.04530159	         -0.12481302	          0.63737368	         -0.02762823	          0.00047716	          0.00000000	          0.00015010	          0.00000000	         -1.61645243	          0.00000000	          0.00000000	         -0.00069028	          0.00000000	
          1.63900000	         23.93537153	        658.19603264	         38.31831080	         -0.14265495	          0.00000000	         -0.04532186	         -0.12955627	          0.65310136	         -0.02796066	          0.00047673	          0.00000000	          0.00014987	          0.00000000	         -1.60320237	          0.00000000	          0.00000000	         -0.00071930	          0.00000000	
          1.64000000	         24.35645799	        659.44829779	         38.56645439	         -0.14219725	          0.00000000	         -0.04534197	         -0.13420524	          0.66759330	         -0.02820851	          0.00047428	          0.00000000	          0.00014901	          0.00000000	         -1.58923440	          0.00000000	          0.00000000	         -0.00074805	          0.00000000	
          1.64100000	         24.78825538	        660.72728118	         38.81818098	         -0.14174673	          0.00000000	         -0.04536185	         -0.13873195	          0.68067480	         -0.02836289	          0.00046965	          0.00000000	          0.00014745	          0.00000000	         -1.57457747	          0.00000000	          0.00000000	         -0.00077638	          0.00000000	
          1.64200000	         25.23107990	        662.03315420	         39.07306778	         -0.14130356	          0.00000000	         -0.04538145	         -0.14310636	          0.69216077	         -0.02841448	          0.00046264	          0.00000000	          0.00014514	          0.00000000	         -1.55926340	          0.00000000	          0.00000000	         -0.00080413	          0.00000000	
          1.64300000	         25.68523498	        663.36601549	         39.33066688	         -0.14086790	          0.00000000	         -0.04540070	         -0.14729625	          0.70185551	         -0.02835352	          0.00045308	          0.00000000	          0.00014201	          0.00000000	         -1.54332733	          0.00000000	          0.00000000	         -0.00083115	          0.00000000	
